<svg width="768" height="444" viewBox="0 0 768 444" fill="none" xmlns="http://www.w3.org/2000/svg">
<mask id="mask0_2603_4015" style="mask-type:alpha" maskUnits="userSpaceOnUse" x="0" y="0" width="768" height="444">
<rect width="768" height="443.733" fill="#F7F8FC"/>
</mask>
<g mask="url(#mask0_2603_4015)">
<mask id="mask1_2603_4015" style="mask-type:alpha" maskUnits="userSpaceOnUse" x="0" y="-60" width="768" height="754">
<rect width="768" height="753.067" transform="matrix(-1 0 0 1 768 -59.7334)" fill="#C4C4C4"/>
</mask>
<g mask="url(#mask1_2603_4015)">
<path d="M801.611 399.57C801.611 399.57 761.132 417.835 720.653 415.86C680.175 413.886 672.77 399.57 672.77 399.57C672.77 399.57 731.184 381.141 801.611 399.57Z" fill="#D0D5F4"/>
<path d="M672.936 399.57C672.936 399.57 680.34 413.886 720.819 415.86C761.298 417.835 801.777 399.57 801.777 399.57C843.572 485.629 835.673 538.778 783.676 562.472H691.201C636.406 538.613 624.559 487.932 672.936 399.57Z" fill="#E1E4F4"/>
<path d="M672.934 414.05C689.06 440.872 747.968 434.29 794.7 421.62C794.7 421.62 685.769 466.706 672.934 414.05Z" fill="#D0D5F4"/>
<path d="M645.621 360.408C645.621 393.647 687.417 420.632 739.085 420.632C790.753 420.632 832.548 393.647 832.548 360.408V349.548C832.548 316.309 790.753 289.323 739.085 289.323C687.417 289.323 645.621 316.309 645.621 349.548V360.408Z" fill="#D0D5F4"/>
<path d="M621.266 364.357C606.621 358.927 630.81 353.497 636.075 354.978C643.48 356.953 669.149 370.939 653.682 380.154C663.061 384.597 674.744 386.736 681.82 394.963C693.338 409.114 676.39 412.57 666.352 402.039C663.061 418 610.735 401.545 641.341 393.318C635.253 391.837 621.924 397.431 617.152 392.989C604.976 381.635 636.898 377.686 641.341 377.521C634.43 372.256 630.152 367.484 621.266 364.357C628.671 366.99 614.026 361.56 621.266 364.357Z" fill="#D0D5F4"/>
<path d="M681.328 408.456C675.239 406.975 661.911 412.734 657.139 408.127C644.962 396.773 676.885 392.824 681.328 392.659C674.417 387.229 670.138 382.457 661.253 379.331C654.012 376.534 668.657 381.964 661.253 379.331C646.608 373.901 670.796 368.471 676.062 369.952C683.467 371.926 709.136 385.913 693.669 395.127C703.048 399.57 714.731 401.709 721.806 409.937C733.325 424.088 716.376 427.543 706.339 417.012C703.048 432.973 650.722 416.519 681.328 408.456Z" fill="#E1E4F4"/>
<path d="M641.998 327.663C631.632 318.448 653.352 321.739 657.301 324.701C662.731 328.65 679.35 348.725 663.718 351.193C669.971 357.94 679.021 363.37 682.148 372.585C687.084 388.052 671.946 385.419 667.009 373.407C659.111 385.584 621.265 354.978 649.074 358.104C644.466 354.813 631.631 355.307 629.163 350.041C622.91 336.713 650.555 343.789 654.175 345.105C650.226 338.359 648.251 333.093 641.998 327.663C647.264 332.27 636.897 323.056 641.998 327.663Z" fill="#E1E4F4"/>
<path d="M651.378 320.422C641.999 307.917 668.327 310.056 672.934 310.714C667.998 307.094 660.428 293.437 668.491 287.842C675.073 283.235 682.149 299.525 686.427 302.816C691.693 292.285 699.755 280.602 711.109 276.159C721.969 272.045 738.589 281.754 726.577 294.095C716.21 304.79 702.059 306.107 692.351 320.422C685.44 330.624 680.832 314.499 676.883 312.853C686.756 325.194 658.454 329.966 651.378 320.422C654.176 324.207 649.733 318.283 651.378 320.422Z" fill="#D0D5F4"/>
<path d="M819.547 382.457C834.192 377.027 810.003 371.597 804.738 373.078C797.333 375.053 771.663 389.039 787.131 398.254C777.752 402.697 766.069 404.836 758.993 413.063C747.475 427.214 764.423 430.67 774.461 420.139C777.752 436.1 830.078 419.645 799.472 411.418C805.56 409.937 818.889 415.531 823.661 411.089C835.837 399.735 803.915 395.786 799.472 395.621C806.383 390.356 810.661 385.584 819.547 382.457C812.142 385.09 826.787 379.825 819.547 382.457Z" fill="#E1E4F4"/>
<path d="M829.583 323.549C838.962 311.044 812.634 313.183 808.027 313.841C812.963 310.221 820.532 296.564 812.47 290.969C805.888 286.362 798.812 302.652 794.534 305.943C789.268 295.412 781.205 283.729 769.852 279.286C758.992 275.172 742.372 284.881 754.384 297.222C764.751 307.917 778.902 309.234 788.61 323.549C795.521 333.751 800.129 317.626 804.078 315.98C794.205 328.486 822.343 333.093 829.583 323.549C826.621 327.499 831.064 321.41 829.583 323.549Z" fill="#D0D5F4"/>
<path d="M620.117 357.281C608.764 346.421 635.256 344.282 639.863 344.282C634.433 341.485 624.725 329.144 631.8 322.397C637.56 316.803 647.103 331.776 651.875 334.245C655.495 322.891 661.583 310.221 671.95 303.968C681.987 298.044 700.088 305.12 690.215 319.106C681.658 331.283 668.001 334.738 660.596 350.699C655.495 361.889 648.255 346.75 644.142 345.598C655.824 356.459 628.674 365.673 620.117 357.281C623.573 360.737 618.143 355.471 620.117 357.281Z" fill="#F7F7FA"/>
<path d="M767.552 362.218C752.908 356.788 777.096 351.358 782.362 352.839C789.766 354.813 815.436 368.8 799.968 378.015C809.347 382.457 821.03 384.597 828.106 392.824C839.624 406.975 822.676 410.431 812.638 399.9C809.347 415.861 757.021 399.406 787.627 391.178C781.539 389.698 768.21 395.292 763.439 390.849C751.262 379.496 783.184 375.546 787.627 375.382C780.716 370.116 776.273 365.344 767.552 362.218C774.957 364.851 760.312 359.585 767.552 362.218Z" fill="#E1E4F4"/>
<path d="M740.895 422.607C728.06 431.492 737.604 408.62 741.717 405.164C747.476 400.228 773.804 387.393 772.488 405.164C781.538 400.063 789.93 391.672 800.79 390.849C819.055 389.532 811.979 405.329 797.664 407.633C808.853 419.48 765.248 452.719 776.108 423.1C771.336 427.214 768.374 441.365 761.957 442.681C745.667 445.972 760.805 417.67 763.273 413.885C754.881 416.354 748.628 417.176 740.895 422.607C747.476 417.999 734.477 426.885 740.895 422.607Z" fill="#F7F7FA"/>
<path d="M739.248 384.925C744.02 375.71 766.07 388.545 762.779 397.595C758.171 411.417 734.97 393.153 739.248 384.925C737.932 387.393 740.894 381.799 739.248 384.925Z" fill="#E1E4F4"/>
<path d="M725.919 378.508C730.526 379.495 744.842 387.394 731.02 391.507C716.046 396.115 714.565 376.698 725.919 378.508C717.033 377.027 728.387 379.166 725.919 378.508Z" fill="#F7F7FA"/>
<path d="M671.783 357.446C669.479 361.56 657.961 373.078 657.796 358.763C657.632 342.966 676.884 347.08 671.783 357.446C675.732 349.383 670.631 359.585 671.783 357.446Z" fill="#F7F7FA"/>
<path d="M701.237 354.32C699.756 356.952 692.351 364.357 692.187 355.142C692.187 345.105 704.528 347.573 701.237 354.32C703.87 349.054 700.414 355.801 701.237 354.32Z" fill="#F7F7FA"/>
<path d="M-159.584 519.026C-159.584 519.026 -168.963 461.269 -132.927 445.802L-98.372 433.461C-98.372 433.461 -41.7675 400.88 -28.1101 376.033C-24.1609 368.793 -22.68 360.566 -17.2499 353.326C-4.7443 336.542 13.5205 333.745 33.4308 332.264C88.5543 328.15 144.336 325.682 199.624 324.859C251.95 324.201 304.606 326.669 356.767 333.086C389.841 337.2 418.308 348.719 416.827 351.022L197.156 608.211C171.157 607.223 150.424 610.843 124.426 609.856C74.5678 607.881 19.4442 604.59 -30.4138 602.78C-63.4879 601.793 -99.0302 603.439 -131.775 598.831C-150.04 596.363 -157.445 578.756 -156.457 561.314L-159.584 519.026Z" fill="#E1E4F4"/>
<path d="M23.7244 340.655C18.1297 342.794 13.3578 346.908 9.57319 351.515C5.78859 356.123 2.66218 361.553 0.52306 367.147C-3.91973 378.501 -5.89423 390.513 -6.38787 402.69C-6.71697 414.702 -6.55244 426.549 -6.71699 438.561L-7.0461 474.433L-5.56513 472.787C-18.5644 475.255 -31.5637 477.888 -44.563 480.85C-50.9804 482.331 -57.5623 483.812 -63.9796 485.293C-70.397 486.774 -76.8144 488.419 -83.2317 490.229L-63.6506 486.609L-44.0694 483.154L-4.907 476.243L-3.42603 475.914V474.433C-3.09693 462.421 -2.93245 450.573 -2.7679 438.561V420.626C-2.7679 414.702 -2.93241 408.614 -2.93241 402.69C-2.76786 390.842 -1.28689 378.995 2.66226 367.97C4.63684 362.376 7.26954 357.11 10.725 352.338C12.5351 350.035 14.3452 347.731 16.6488 345.756C18.6234 343.617 21.0916 341.807 23.7244 340.655Z" fill="#D0D5F4"/>
<path d="M397.084 546.505C376.187 618.577 322.709 609.362 322.709 609.362L156.68 609.856C178.071 606.565 181.362 551.606 181.362 551.606C180.375 467.028 309.874 438.726 309.874 438.726C353.644 333.086 416.666 351.186 416.666 351.186C416.666 351.186 443.651 385.741 397.084 546.505Z" fill="#D0D5F4"/>
<path d="M397.083 546.505C376.186 618.577 322.708 609.362 322.708 609.362L156.679 609.856C178.07 606.565 181.361 551.606 181.361 551.606C180.374 467.028 309.873 438.726 309.873 438.726C353.643 333.086 416.665 351.186 416.665 351.186C416.665 351.186 443.65 385.741 397.083 546.505Z" fill="#D0D5F4"/>
<path d="M798.296 169.032H640.001V-23.9829H798.296V169.032ZM649.709 159.159H788.259V-14.11H649.709V159.159Z" fill="#E1E4F4"/>
<path d="M769.5 10.2432H668.468V134.806H769.5V10.2432Z" fill="#E1E4F4"/>
</g>
<path d="M531.299 342.033L549.884 375.078C553.48 371.151 570.303 364.087 577.912 350.479C584.833 352.39 590.587 364.794 588.585 371.245C574.326 388.915 543.723 420.288 534.77 412.133C520.677 399.293 508.889 369.136 508.889 369.136L531.299 342.033Z" fill="#FAC2A8"/>
<path d="M580.486 358.436C580.486 358.436 570.271 357.491 571.793 338.782C572.116 334.855 574.044 328.102 574.273 325.921C574.503 323.739 574.19 316.01 572.439 313.632C570.677 311.253 569.541 309.528 570.959 307.783C572.376 306.038 579.704 304.905 582.987 312.001C586.271 319.096 584.561 325.059 584.561 325.059C584.561 325.059 590.398 317.808 593.379 317.808C594.672 317.808 608.107 316.966 610.932 320.322C612.006 321.589 614.757 349.554 614.361 350.915C613.965 352.286 601.04 374.112 588.345 371.931C582.539 370.933 580.486 359.112 580.486 358.436Z" fill="#FAC2A8"/>
<path d="M607.011 345.046C606.251 344.703 605.542 344.496 604.791 344.423L602.54 344.288C601.028 344.215 599.517 344.142 597.943 344.246C597.547 344.278 597.151 344.319 596.713 344.433C596.255 344.537 595.754 344.849 595.473 345.109C594.816 345.659 594.316 346.251 593.826 346.854C592.857 348.09 592.023 349.264 591.241 350.708C590.887 351.456 590.616 352.225 590.511 353.087C590.397 353.939 590.522 354.884 590.96 355.684C591.387 356.494 592.064 357.097 592.773 357.533C593.492 357.98 594.253 358.27 595.025 358.468C595.796 358.676 596.567 358.811 597.349 358.883C597.735 358.925 598.131 358.946 598.527 358.956C598.944 358.956 599.267 358.977 599.809 358.883C600.747 358.592 601.352 358.146 601.987 357.668C602.3 357.429 602.592 357.18 602.884 356.92C603.186 356.64 603.415 356.442 603.759 356.047L602.894 355.414C601.987 356.266 600.622 357.356 599.538 357.689C599.33 357.72 598.902 357.72 598.569 357.699C598.214 357.678 597.849 357.647 597.495 357.606C596.786 357.512 596.077 357.367 595.4 357.169C594.066 356.764 592.763 356.099 592.221 355.04C591.648 354.001 591.939 352.598 592.544 351.383C592.815 350.822 593.294 350.157 593.68 349.565C594.097 348.963 594.514 348.35 594.952 347.778C595.389 347.207 595.859 346.646 596.359 346.22C596.63 345.992 596.786 345.888 597.057 345.805C597.349 345.721 597.693 345.68 598.047 345.638C599.475 345.514 600.976 345.555 602.467 345.597C603.968 345.555 605.5 345.971 607.011 345.046Z" fill="#DC918B"/>
<path d="M606.376 336.341C603.999 335.77 601.695 336.05 599.361 336.175C598.193 336.258 597.026 336.341 595.838 336.486C595.233 336.58 594.67 336.621 593.972 336.871C593.211 337.141 592.742 337.671 592.304 338.159C591.491 339.187 591.012 340.33 590.626 341.473C590.24 342.626 589.98 343.8 589.834 345.005C589.677 346.199 589.677 347.425 589.855 348.651C590.053 349.929 590.48 351.009 591.043 352.121L592.064 351.622C591.845 351.123 591.668 350.594 591.512 350.064C591.335 349.524 591.241 349.004 591.168 348.474C591.053 347.394 591.126 346.283 591.262 345.181C591.574 343 592.242 340.735 593.472 339.073C593.784 338.699 594.139 338.325 594.493 338.211C594.889 338.045 595.494 337.961 596.036 337.868C597.161 337.702 598.308 337.588 599.465 337.484C601.768 337.255 604.103 337.265 606.376 336.341Z" fill="#DC918B"/>
<path d="M590.814 344.485C589.762 343.747 588.928 342.74 588.469 341.576C587.99 340.413 587.927 339.104 588.042 337.816C588.365 335.229 589.407 332.59 591.023 330.565C591.846 329.557 592.826 328.716 594.004 328.404C595.244 328.061 596.641 327.968 598.006 327.905C599.382 327.833 600.779 327.864 602.186 327.801C602.885 327.77 603.593 327.708 604.302 327.604C605 327.469 605.751 327.365 606.366 326.95C605.657 326.991 604.98 326.866 604.281 326.804C603.593 326.742 602.895 326.679 602.197 326.638C600.8 326.565 599.393 326.576 597.975 326.596C596.558 326.638 595.13 326.69 593.649 327.053C592.076 327.438 590.814 328.497 589.866 329.619C588.886 330.762 588.198 332.071 587.646 333.421C587.104 334.782 586.718 336.185 586.551 337.67C586.395 339.145 586.541 340.714 587.166 342.127C587.771 343.55 588.855 344.745 590.147 345.534L590.814 344.485Z" fill="#DC918B"/>
<path d="M586.979 322.223C585.958 322.888 585.061 323.667 584.436 324.83C583.832 326.004 583.79 327.407 584.061 328.612C584.321 329.806 584.707 331.022 585.593 332.061C586.041 332.57 586.646 332.975 587.323 333.162C587.97 333.369 588.71 333.338 589.231 333.307V332.164C588.585 332.185 588.136 332.196 587.667 332.05C587.209 331.915 586.813 331.655 586.489 331.281C585.843 330.533 585.468 329.463 585.28 328.393C585.082 327.324 585.124 326.295 585.52 325.339C585.864 324.352 586.635 323.438 586.979 322.223Z" fill="#DC918B"/>
<path d="M597.923 355.184C598.798 355.486 599.674 355.776 600.57 355.943C601.467 356.13 602.384 356.234 603.301 356.285C604.229 356.306 605.167 356.275 606.084 356.078C606.991 355.891 607.981 355.558 608.617 354.842C607.721 355.101 606.866 355.112 605.98 355.112C605.104 355.101 604.229 355.08 603.343 355.039C602.457 355.018 601.56 354.977 600.664 354.977C599.778 354.997 598.861 354.966 597.923 355.184Z" fill="#DC918B"/>
<path d="M392.658 342.314L375.459 375.931C371.863 372.004 351.298 364.088 343.689 350.479C336.768 352.391 331.014 364.794 333.016 371.246C347.275 388.916 369.883 418.98 383.235 411.043C399.631 401.289 412.712 369.137 412.712 369.137L392.658 342.314Z" fill="#FAC2A8"/>
<path d="M341.114 358.436C341.114 358.436 351.329 357.491 349.807 338.782C349.484 334.855 347.555 328.102 347.326 325.921C347.097 323.739 347.409 316.01 349.16 313.632C350.922 311.253 352.058 309.528 350.641 307.783C349.223 306.038 341.895 304.905 338.612 312.001C335.329 319.096 337.038 325.059 337.038 325.059C337.038 325.059 331.201 317.808 328.22 317.808C326.928 317.808 313.492 316.966 310.667 320.322C309.594 321.589 306.842 349.554 307.238 350.915C307.634 352.286 320.559 374.112 333.255 371.931C339.071 370.933 341.124 359.112 341.114 358.436Z" fill="#FAC2A8"/>
<path d="M314.597 345.046C316.108 345.97 317.64 345.555 319.131 345.576C320.621 345.534 322.122 345.492 323.55 345.617C323.905 345.648 324.249 345.7 324.541 345.783C324.822 345.856 324.968 345.97 325.239 346.199C325.729 346.625 326.198 347.186 326.646 347.757C327.094 348.328 327.501 348.941 327.918 349.544C328.314 350.136 328.793 350.801 329.054 351.362C329.658 352.567 329.95 353.98 329.377 355.019C328.835 356.089 327.522 356.753 326.198 357.148C325.52 357.356 324.822 357.501 324.103 357.584C323.748 357.636 323.384 357.668 323.029 357.678C322.696 357.699 322.268 357.699 322.06 357.668C320.976 357.335 319.61 356.244 318.703 355.393L317.838 356.026C318.182 356.431 318.412 356.618 318.714 356.899C319.006 357.159 319.298 357.408 319.61 357.647C320.246 358.125 320.851 358.571 321.789 358.862C322.32 358.956 322.654 358.935 323.071 358.935C323.467 358.925 323.853 358.904 324.249 358.862C325.03 358.789 325.802 358.654 326.573 358.447C327.344 358.239 328.105 357.948 328.824 357.512C329.533 357.075 330.221 356.473 330.638 355.663C331.076 354.863 331.201 353.917 331.086 353.066C330.982 352.203 330.722 351.435 330.357 350.687C329.575 349.243 328.741 348.069 327.772 346.833C327.282 346.23 326.782 345.638 326.125 345.087C325.833 344.828 325.333 344.516 324.884 344.412C324.447 344.308 324.051 344.256 323.655 344.225C322.081 344.121 320.569 344.194 319.058 344.267L316.806 344.402C316.066 344.495 315.358 344.693 314.597 345.046Z" fill="#DC918B"/>
<path d="M315.232 336.341C317.505 337.265 319.84 337.245 322.143 337.484C323.3 337.588 324.447 337.702 325.572 337.868C326.114 337.961 326.719 338.045 327.115 338.211C327.469 338.325 327.824 338.699 328.137 339.073C329.377 340.735 330.044 343 330.346 345.181C330.482 346.283 330.555 347.394 330.44 348.474C330.367 349.004 330.273 349.513 330.096 350.064C329.94 350.594 329.763 351.134 329.544 351.622L330.565 352.121C331.118 351.009 331.545 349.929 331.753 348.651C331.931 347.425 331.931 346.199 331.774 345.005C331.618 343.81 331.357 342.626 330.982 341.473C330.586 340.33 330.107 339.187 329.304 338.159C328.866 337.671 328.397 337.141 327.636 336.871C326.948 336.621 326.375 336.58 325.77 336.486C324.582 336.341 323.415 336.258 322.247 336.175C319.913 336.05 317.609 335.77 315.232 336.341Z" fill="#DC918B"/>
<path d="M331.473 345.524C332.765 344.734 333.849 343.54 334.454 342.117C335.079 340.704 335.225 339.125 335.069 337.66C334.902 336.175 334.516 334.772 333.974 333.411C333.422 332.061 332.724 330.741 331.754 329.609C330.806 328.487 329.545 327.428 327.971 327.043C326.491 326.68 325.063 326.638 323.645 326.586C322.227 326.565 320.82 326.555 319.424 326.628C318.725 326.669 318.027 326.732 317.339 326.794C316.641 326.856 315.963 326.981 315.254 326.939C315.869 327.355 316.63 327.459 317.318 327.594C318.027 327.698 318.736 327.76 319.434 327.791C320.841 327.853 322.227 327.822 323.614 327.895C324.979 327.968 326.376 328.061 327.616 328.394C328.794 328.705 329.774 329.547 330.597 330.554C332.213 332.58 333.255 335.208 333.578 337.805C333.703 339.094 333.631 340.403 333.151 341.566C332.692 342.73 331.848 343.737 330.806 344.475L331.473 345.524Z" fill="#DC918B"/>
<path d="M334.63 322.223C334.963 323.438 335.745 324.352 336.099 325.319C336.495 326.264 336.547 327.303 336.339 328.373C336.151 329.443 335.776 330.513 335.13 331.261C334.807 331.635 334.411 331.894 333.952 332.029C333.483 332.175 333.035 332.175 332.389 332.144V333.286C332.899 333.318 333.639 333.349 334.296 333.141C334.963 332.954 335.578 332.549 336.026 332.04C336.912 331.011 337.298 329.786 337.558 328.591C337.829 327.396 337.788 325.983 337.183 324.81C336.547 323.656 335.651 322.888 334.63 322.223Z" fill="#DC918B"/>
<path d="M323.686 355.185C322.758 354.967 321.841 354.998 320.934 354.988C320.027 354.977 319.141 355.019 318.255 355.05C317.369 355.091 316.494 355.112 315.618 355.123C314.743 355.112 313.888 355.112 312.981 354.853C313.617 355.569 314.607 355.912 315.514 356.089C316.442 356.276 317.38 356.317 318.297 356.296C319.225 356.244 320.132 356.151 321.028 355.954C321.935 355.777 322.81 355.486 323.686 355.185Z" fill="#DC918B"/>
<path d="M397.858 175.955C397.858 175.955 393.502 151.294 376.647 159.708C359.793 168.133 373.624 210.122 397.733 206.798C397.733 206.798 402.539 198.415 397.858 175.955Z" fill="#F7AB8D"/>
<path d="M418.153 300.396C409.387 304.469 402.789 320.082 384.757 351.86C389.166 358.633 401.08 363.36 410.096 373.385L425.21 350.084L418.153 300.396Z" fill="#EF3F54"/>
<path d="M510.088 455.536L509.567 437.959L402.822 434.229V455.982C454.042 464.688 510.088 455.536 510.088 455.536Z" fill="#2B2E3A"/>
<path d="M437.811 443.246H449.516C452.018 443.246 454.05 445.272 454.05 447.765V455.14C454.05 457.634 452.018 459.659 449.516 459.659H437.811" stroke="#545B72" stroke-width="7.59435" stroke-miterlimit="10" stroke-linejoin="round"/>
<path d="M513.631 314.733C511.546 302.08 500.497 292.876 487.635 292.948C480.672 292.98 471.979 287.796 463.349 288.959C451.06 290.746 426.961 296.563 418.164 300.407C403.561 332.455 409.21 400.27 400.194 445.978C420.936 448.077 477.295 452.834 510.764 445.77C500.737 369.209 521.448 362.217 513.631 314.733Z" fill="#EF3F54"/>
<path d="M485.282 288.15L483.385 261.857L443.693 269.492C443.693 269.492 446.559 283.787 446.643 294.019C446.643 294.019 446.549 296.491 446.768 299.816C449.384 300.948 452.188 301.686 455.044 301.602C461.621 301.405 475.901 293.666 485.282 288.15Z" fill="#DC918B"/>
<path d="M455.03 301.602C452.174 301.686 449.37 300.948 446.754 299.816C447.109 305.301 448.286 313.123 452.081 316.011C477.701 313.767 485.539 291.817 485.539 291.817L485.279 288.15C475.898 293.666 461.618 301.405 455.03 301.602Z" fill="#FAC2A8"/>
<path d="M396.484 67.6267C378.889 67.9383 377.138 88.7668 375.23 97.7838C369.498 124.949 380.453 171.593 380.619 183.934C380.619 183.944 425.21 67.1176 396.484 67.6267Z" fill="#2B2E3A"/>
<path d="M390.158 75.2314C390.158 75.2314 374.898 230.806 379.401 242.275C383.904 253.754 417.613 273.606 437.563 278.291C457.513 282.987 500.291 257.691 507.253 250.045C510.995 245.932 521.387 208.658 529.611 170.575C536.668 137.914 558.546 110.759 556.879 97.3376C556.868 97.3272 468.468 39.6307 390.158 75.2314Z" fill="#FAC2A8"/>
<path d="M398.076 156.675C399.588 154.576 401.089 152.52 402.746 150.65C403.59 149.735 404.435 148.832 405.373 148.094C406.29 147.346 407.291 146.713 408.312 146.432C410.345 145.767 412.356 147.024 413.899 148.904C415.462 150.764 416.661 153.029 417.943 155.272C417.464 152.727 416.682 150.213 415.212 147.938C414.493 146.796 413.503 145.746 412.221 144.978C410.928 144.219 409.209 144.022 407.749 144.437C404.852 145.393 402.996 147.533 401.485 149.652C399.973 151.834 398.827 154.192 398.076 156.675Z" fill="#2B2E3A"/>
<path d="M457.47 158.337C459.305 156.156 461.223 154.088 463.37 152.416C465.486 150.764 468.019 149.559 470.302 150.213C471.448 150.494 472.49 151.221 473.408 152.135C473.898 152.551 474.294 153.112 474.731 153.6C475.096 154.171 475.534 154.68 475.888 155.273C477.358 157.589 478.546 160.145 479.818 162.7C479.38 159.875 478.598 157.101 477.306 154.473C477.014 153.797 476.597 153.185 476.222 152.54C475.763 151.938 475.378 151.304 474.825 150.754C473.793 149.632 472.459 148.634 470.844 148.188C469.228 147.762 467.487 147.99 466.049 148.603C464.6 149.237 463.37 150.141 462.317 151.169C460.191 153.257 458.575 155.698 457.47 158.337Z" fill="#2B2E3A"/>
<path d="M515.162 180.079C515.162 180.079 512.796 188.151 508.825 196.067C499.079 215.462 467.434 191.735 422.603 198.02C410.825 199.672 406.593 202.903 394.137 204.346C377.408 206.279 381.973 173.462 381.911 167.385C378.972 204.824 371.415 232.405 378.242 247.406C383.255 258.428 416.871 280.306 445.243 280.835C468.831 281.282 504.593 265.471 511.431 257.96C514.745 254.314 522.104 224.261 529.682 190.987L536.301 169.67L515.162 180.079Z" fill="#2B2E3A"/>
<path d="M402.934 211.016C402.934 211.016 432.161 231.616 476.481 210.705C476.481 210.705 458.823 251.001 432.307 249.152C405.164 244.404 419.194 228.915 402.934 211.016Z" fill="#31374C"/>
<path d="M457.647 238.078C437.447 235.096 426.106 239.906 419.998 244.799C422.729 246.669 426.606 248.154 432.318 249.152C442.127 249.837 450.715 244.757 457.647 238.078Z" fill="#F97A7A"/>
<path d="M402.933 211.016C407.852 216.439 408.593 218.891 409.687 221.55C421.403 226.37 439.946 232.115 469.027 224.085C475.354 215.286 476.49 210.705 476.49 210.705C432.16 231.616 402.933 211.016 402.933 211.016Z" fill="white"/>
<path d="M402.934 211.016C405.571 212.813 408.459 214.226 411.419 215.442C414.379 216.647 417.433 217.634 420.55 218.413C422.103 218.797 423.677 219.13 425.251 219.41C426.835 219.67 428.419 219.909 430.014 220.064C431.609 220.231 433.214 220.366 434.809 220.407C436.414 220.49 438.019 220.47 439.624 220.459C441.23 220.387 442.835 220.366 444.429 220.2C446.035 220.096 447.619 219.877 449.214 219.68C450.798 219.452 452.382 219.181 453.967 218.88C455.541 218.548 457.115 218.226 458.657 217.8C460.221 217.415 461.753 216.958 463.285 216.481C464.828 216.044 466.329 215.452 467.851 214.943C469.362 214.403 470.842 213.769 472.333 213.198L476.731 211.255L475.939 210.486C474.886 212.793 473.688 215.078 472.437 217.312C471.176 219.545 469.841 221.737 468.434 223.867C465.61 228.136 462.503 232.24 458.97 235.927C455.436 239.605 451.476 242.929 446.973 245.308C442.491 247.687 437.415 248.985 432.349 248.663L432.401 248.674C431.348 248.456 430.285 248.31 429.253 248.04C428.211 247.812 427.179 247.531 426.157 247.209C425.146 246.877 424.135 246.534 423.176 246.087C422.686 245.89 422.217 245.64 421.748 245.391C421.269 245.152 420.831 244.872 420.393 244.581C419.497 244.02 418.705 243.334 417.954 242.607C417.235 241.849 416.568 241.028 416.036 240.124C414.932 238.327 414.233 236.301 413.66 234.244C412.534 230.12 411.69 225.83 409.98 221.841C409.564 220.844 409.094 219.867 408.594 218.901C408.094 217.945 407.531 217.021 406.947 216.107C406.332 215.213 405.728 214.32 405.04 213.489C404.394 212.606 403.643 211.827 402.934 211.016ZM402.934 211.016C403.622 211.847 404.341 212.658 404.956 213.541C405.613 214.392 406.197 215.307 406.78 216.2C407.343 217.114 407.875 218.049 408.354 219.015C408.823 219.981 409.272 220.958 409.657 221.955C410.439 223.95 411.044 226.017 411.554 228.095C412.076 230.183 412.482 232.291 413.034 234.39C413.576 236.478 414.264 238.587 415.401 240.488C415.943 241.454 416.641 242.316 417.391 243.137C418.173 243.916 419.007 244.654 419.935 245.256C420.393 245.568 420.852 245.869 421.342 246.118C421.821 246.388 422.311 246.648 422.812 246.866C423.802 247.344 424.834 247.708 425.876 248.071C426.918 248.404 427.971 248.715 429.034 248.965C430.087 249.256 431.171 249.422 432.234 249.65H432.245H432.286C437.56 250.087 442.876 248.705 447.504 246.274C452.164 243.843 456.229 240.457 459.846 236.727C463.462 232.977 466.642 228.853 469.487 224.521C470.905 222.35 472.249 220.127 473.51 217.873C474.772 215.608 475.96 213.312 477.034 210.933L477.669 209.531L476.241 210.164L471.895 212.107C470.415 212.689 468.966 213.322 467.465 213.863C465.964 214.382 464.484 214.964 462.962 215.411C461.451 215.899 459.929 216.356 458.386 216.74C456.864 217.177 455.301 217.488 453.758 217.841C452.205 218.174 450.642 218.454 449.078 218.704C447.504 218.932 445.941 219.161 444.356 219.296C442.783 219.483 441.188 219.535 439.603 219.628C438.019 219.659 436.424 219.701 434.84 219.639C433.256 219.618 431.661 219.504 430.087 219.368C428.503 219.233 426.929 219.026 425.355 218.787C423.781 218.537 422.217 218.247 420.664 217.914C417.558 217.218 414.504 216.304 411.523 215.182C408.563 214.029 405.634 212.72 402.934 211.016Z" fill="#494F66"/>
<path d="M469.237 208.409C469.237 208.409 470.3 208.305 471.822 208.44C472.197 208.471 472.604 208.523 473.031 208.606C473.459 208.658 473.886 208.824 474.334 208.908C474.761 209.084 475.22 209.198 475.627 209.437C475.835 209.552 476.054 209.635 476.262 209.77L476.846 210.185C477.263 210.435 477.565 210.819 477.92 211.12C478.222 211.494 478.514 211.858 478.795 212.211C479.014 212.616 479.264 212.99 479.483 213.354C479.66 213.749 479.838 214.122 479.994 214.465C480.161 214.808 480.307 215.13 480.39 215.431C480.494 215.733 480.588 215.992 480.671 216.2C480.838 216.636 480.943 216.875 480.943 216.875C480.943 216.875 480.932 216.616 480.922 216.148C480.87 215.691 480.922 215.006 480.692 214.237C480.599 213.842 480.505 213.416 480.359 212.969C480.171 212.543 479.973 212.086 479.754 211.619C479.473 211.183 479.181 210.726 478.837 210.3C478.43 209.926 478.076 209.469 477.597 209.167L476.888 208.7C476.648 208.554 476.388 208.45 476.137 208.336C475.647 208.066 475.095 207.993 474.605 207.838C474.094 207.765 473.594 207.661 473.125 207.671C472.656 207.64 472.208 207.671 471.812 207.723C470.196 207.9 469.237 208.409 469.237 208.409Z" fill="#494F66"/>
<path opacity="0.2" d="M464.87 173.847C464.703 176.953 469.748 179.778 476.116 180.132C482.495 180.495 487.78 178.262 487.947 175.145C488.103 172.029 483.069 169.214 476.7 168.86C470.321 168.497 465.026 170.73 464.87 173.847Z" fill="#EF3F54"/>
<path opacity="0.2" d="M388.351 166.544C387.642 169.162 391.416 172.434 396.784 173.847C402.162 175.27 407.092 174.294 407.801 171.666C408.51 169.048 404.726 165.776 399.358 164.352C394.001 162.94 389.07 163.916 388.351 166.544Z" fill="#EF3F54"/>
<path d="M393.115 122.487C397.952 118.529 403.289 115.87 412.909 117.096C417.746 118.311 422.926 119.288 419.33 113.543C413.024 104.651 391.792 110.603 387.456 123.412C384.933 128.866 390.166 125.614 393.115 122.487Z" fill="#2B2E3A"/>
<path d="M489.459 131.577C485.978 126.393 481.642 122.311 472.063 120.711C467.08 120.482 461.837 119.911 466.945 115.454C475.555 108.764 494.16 120.565 494.598 134.091C495.463 140.044 491.387 135.421 489.459 131.577Z" fill="#2B2E3A"/>
<path opacity="0.6" d="M448.871 137.26C448.871 137.26 434.299 144.043 419.373 141.539C419.373 141.539 434.31 166.316 413.964 193.834C413.964 193.834 432.079 204.95 447.6 194.125C447.61 194.115 439.959 165.755 448.871 137.26Z" fill="url(#paint0_linear_2603_4015)"/>
<path d="M515.162 180.08C515.162 180.08 522.448 158.358 512.838 136.616C505.813 120.722 519.728 99.4256 527.535 92.2369C527.535 92.2369 556.053 89.5983 557.491 91.0526C566.247 99.9138 576.118 125.812 544.869 184.724L515.162 180.08Z" fill="#2B2E3A"/>
<path d="M524.659 191.34C524.659 191.34 535.072 171 549.477 180.724C563.882 190.447 550.28 239.843 516.56 222.058C516.56 222.058 509.285 212.761 524.659 191.34Z" fill="#FAC2A8"/>
<path d="M545.33 199.122C545.767 197.917 545.976 196.597 545.892 195.257C545.799 193.928 545.35 192.504 544.36 191.393C543.38 190.261 541.973 189.606 540.597 189.294C539.263 188.962 537.585 188.952 536.199 189.533C534.781 190.063 533.603 190.967 532.624 191.964C531.654 192.982 530.852 194.094 530.153 195.247C529.444 196.39 528.892 197.605 528.381 198.831C527.891 200.067 527.433 201.272 527.11 202.612L526.807 203.869L528.027 204.16C529.528 204.524 531.112 205.116 532.467 205.843C533.833 206.56 535.031 207.588 535.198 208.793C535.375 210.029 534.396 211.484 533.27 212.637C532.113 213.821 530.768 214.87 529.382 215.878C530.966 215.224 532.53 214.455 533.947 213.406C534.656 212.876 535.344 212.284 535.907 211.525C536.459 210.777 536.928 209.811 536.928 208.7C536.928 207.588 536.407 206.56 535.771 205.801C535.136 205.033 534.385 204.441 533.614 203.921C532.04 202.913 530.414 202.249 528.642 201.698L529.559 203.256C530.289 200.992 531.279 198.665 532.478 196.608C533.676 194.551 535.198 192.65 537.106 191.746C538.909 190.884 541.567 191.196 543.234 192.504C544.933 193.928 545.486 196.608 545.33 199.122Z" fill="#DC918B"/>
<path d="M413.974 193.823C413.974 193.823 432.381 222.641 447.61 194.114C447.61 194.114 430.474 198.28 413.974 193.823Z" fill="#DC918B"/>
<path d="M447.692 301.02C440.448 306.63 431.599 317.237 431.599 317.237C431.599 317.237 433.955 304.615 435.456 297.395C437.248 293.115 445.993 284.493 445.993 284.493C445.993 284.493 447.807 297.977 447.692 301.02Z" fill="#BD1A3B"/>
<path d="M515.642 303.005C509.117 297.011 494.681 294.725 494.681 294.725C492.877 293.468 474.261 311.523 485.936 326.461C492.2 334.471 503.353 361.75 512.004 379.494C520.239 368.492 538.928 355.268 545.557 351.871C535.008 331.001 525.794 312.323 515.642 303.005Z" fill="#EF3F54"/>
<path d="M476.8 349.496C476.426 349.464 476.151 349.579 475.811 349.991L471.782 354.837L470.619 349.803C470.498 349.298 470.184 349.106 469.881 349.093C469.422 349.072 469.182 349.244 468.916 349.653L465.245 356.066L467.09 356.169L469.582 351.746L470.717 356.379L472.259 356.469L475.884 352.131L475.615 356.659L477.199 356.754L477.546 350.416C477.575 349.792 477.195 349.53 476.8 349.496Z" fill="white"/>
<path d="M463.373 349.907L461.538 355.858L463.226 355.954L465.041 350.001L463.373 349.907Z" fill="white"/>
<path d="M460.393 351.463C460.536 350.664 460.118 349.718 458.43 349.622L455.168 349.432L453.353 355.386L455.021 355.479L455.703 353.246L456.558 353.29L457.909 355.637L459.733 355.738L458.211 353.235C459.719 352.977 460.262 352.254 460.393 351.463ZM457.214 352.308L456.026 352.237L456.575 350.438L457.837 350.507C458.504 350.54 458.833 350.88 458.738 351.444C458.629 352.038 458.027 352.357 457.214 352.308Z" fill="white"/>
<path d="M484.14 357.149L485.745 357.236L484.537 351.58C484.368 350.934 483.991 350.745 483.571 350.75C483.308 350.752 483.036 350.846 482.744 351.2L478.409 356.807L480.046 356.897L480.924 355.71L483.905 355.879L484.14 357.149ZM481.671 354.759L483.265 352.628L483.704 354.873L481.671 354.759Z" fill="white"/>
<path d="M490.883 356.413C489.531 356.313 488.803 355.509 488.965 354.545C489.185 353.242 490.431 352.515 492.107 352.63C492.596 352.664 493.238 352.737 493.806 352.916L494.171 351.723C493.704 351.587 492.9 351.455 492.37 351.416C489.494 351.249 487.594 352.467 487.258 354.426C486.957 356.159 488.13 357.483 490.787 357.635C491.319 357.664 491.793 357.644 492.451 357.582L492.849 356.279C492.216 356.406 491.705 356.474 490.883 356.413Z" fill="white"/>
<path d="M387.153 53.4053C401.35 42.9651 428.2 21.8457 456.99 26.1777C471.249 28.567 481.213 31.2264 491.887 38.9552C490.938 36.4724 482.297 28.8786 483.006 27.2684C483.882 25.2635 558.586 55.4726 557.491 91.0732C561.066 96.1531 562.942 99.9552 562.859 101.586C562.453 109.346 510.701 138.236 516.277 119.683C521.677 104.09 523.303 102.355 517.632 97.1712C507.459 87.8217 488.249 84.591 442.605 91.5199C421.206 94.7715 355.727 88.3203 360.168 63.3054C360.178 63.3054 372.957 63.8456 387.153 53.4053Z" fill="#2B2E3A"/>
<path d="M445.516 295.577L453.594 314.733L478.036 295.483L483.748 301.561L451.884 327.24L443.327 304.771L445.516 295.577Z" fill="#BD1A3B"/>
<path d="M486.02 283.807C486.02 283.807 476.326 296.886 464.183 306.391C465.809 309.933 480.548 319.397 480.548 319.397L497.079 293.032L486.02 283.807Z" fill="#BD1A3B"/>
<path d="M493.326 344.205C493.827 344.755 494.129 345.462 494.473 346.127C494.817 346.791 495.129 347.477 495.453 348.142L497.36 352.204C498.621 354.915 499.924 357.616 501.279 360.286C501.946 361.626 502.738 362.914 503.489 364.202L504.667 366.124C504.865 366.446 505.073 366.758 505.251 367.09L505.751 368.098C507.106 370.778 508.555 373.417 510.275 375.931C509.472 372.991 508.378 370.176 507.21 367.412C506.585 366.051 506.095 364.607 505.511 363.205C504.927 361.803 504.333 360.421 503.645 359.081C502.238 356.411 500.758 353.783 499.09 351.248C498.256 349.981 497.402 348.724 496.464 347.519C496.005 346.906 495.515 346.324 495.015 345.742C494.525 345.192 494.014 344.579 493.326 344.205Z" fill="#BD1A3B"/>
<path d="M411.097 328.643C409.356 335.468 408.345 342.428 407.667 349.419C407.021 356.411 406.688 363.464 407.292 370.476C407.522 366.965 407.813 363.485 408.105 359.995L409.116 349.554L410.2 339.114C410.544 335.645 410.836 332.154 411.097 328.643Z" fill="#BD1A3B"/>
</g>
<defs>
<linearGradient id="paint0_linear_2603_4015" x1="444.922" y1="135.824" x2="422.99" y2="197.619" gradientUnits="userSpaceOnUse">
<stop stop-color="#FAC2A8"/>
<stop offset="0.2651" stop-color="#F7BCA5"/>
<stop offset="0.6038" stop-color="#EDAD9B"/>
<stop offset="0.981" stop-color="#DD938C"/>
<stop offset="1" stop-color="#DC918B"/>
</linearGradient>
</defs>
</svg>
